<?xml version="1.0" encoding="UTF-8" standalone="no"?>
<!-- Created with Inkscape (http://www.inkscape.org/) -->

<svg
   xmlns:dc="http://purl.org/dc/elements/1.1/"
   xmlns:cc="http://creativecommons.org/ns#"
   xmlns:rdf="http://www.w3.org/1999/02/22-rdf-syntax-ns#"
   xmlns:svg="http://www.w3.org/2000/svg"
   xmlns="http://www.w3.org/2000/svg"
   xmlns:sodipodi="http://sodipodi.sourceforge.net/DTD/sodipodi-0.dtd"
   xmlns:inkscape="http://www.inkscape.org/namespaces/inkscape"
   width="64px"
   height="64px"
   id="svg3029"
   version="1.1"
   inkscape:version="0.48.4 r9939"
   sodipodi:docname="firestr.svg"
   inkscape:export-filename="/home/mempko/Pictures/firestr.png"
   inkscape:export-xdpi="1513.922"
   inkscape:export-ydpi="1513.922">
  <defs
     id="defs3031" />
  <sodipodi:namedview
     id="base"
     pagecolor="#ffffff"
     bordercolor="#666666"
     borderopacity="1.0"
     inkscape:pageopacity="0.0"
     inkscape:pageshadow="2"
     inkscape:zoom="11.800226"
     inkscape:cx="29.01411"
     inkscape:cy="37.066045"
     inkscape:current-layer="layer1"
     showgrid="true"
     inkscape:document-units="px"
     inkscape:grid-bbox="true"
     inkscape:window-width="1600"
     inkscape:window-height="843"
     inkscape:window-x="0"
     inkscape:window-y="27"
     inkscape:window-maximized="1" />
  <metadata
     id="metadata3034">
    <rdf:RDF>
      <cc:Work
         rdf:about="">
        <dc:format>image/svg+xml</dc:format>
        <dc:type
           rdf:resource="http://purl.org/dc/dcmitype/StillImage" />
        <dc:title></dc:title>
      </cc:Work>
    </rdf:RDF>
  </metadata>
  <g
     id="layer1"
     inkscape:label="Layer 1"
     inkscape:groupmode="layer">
    <flowRoot
       xml:space="preserve"
       id="flowRoot3037"
       style="font-size:40px;font-style:normal;font-weight:normal;line-height:125%;letter-spacing:0px;word-spacing:0px;fill:#000000;fill-opacity:1;stroke:none;font-family:Sans"><flowRegion
         id="flowRegion3039"><rect
           id="rect3041"
           width="57.454544"
           height="57.81818"
           x="3.6363637"
           y="2.7272727" /></flowRegion><flowPara
         id="flowPara3043">F★ </flowPara></flowRoot>    <flowRoot
       xml:space="preserve"
       id="flowRoot3045"
       style="fill:black;stroke:none;stroke-opacity:1;stroke-width:1px;stroke-linejoin:miter;stroke-linecap:butt;fill-opacity:1;font-family:Sans;font-style:normal;font-weight:normal;font-size:40px;line-height:125%;letter-spacing:0px;word-spacing:0px"><flowRegion
         id="flowRegion3047"><rect
           id="rect3049"
           width="11.636364"
           height="55.636364"
           x="5.818182"
           y="6.7272725" /></flowRegion><flowPara
         id="flowPara3051" /></flowRoot>    <flowRoot
       xml:space="preserve"
       id="flowRoot3053"
       style="fill:black;stroke:none;stroke-opacity:1;stroke-width:1px;stroke-linejoin:miter;stroke-linecap:butt;fill-opacity:1;font-family:Sans;font-style:normal;font-weight:normal;font-size:40px;line-height:125%;letter-spacing:0px;word-spacing:0px"><flowRegion
         id="flowRegion3055"><rect
           id="rect3057"
           width="37.272728"
           height="48.545456"
           x="6.3636365"
           y="4.5454545" /></flowRegion><flowPara
         id="flowPara3059" /></flowRoot>    <path
       style="fill:#000000;fill-rule:evenodd;stroke:#000000;stroke-width:1.44182622px;stroke-linecap:butt;stroke-linejoin:miter;stroke-opacity:1"
       inkscape:transform-center-x="-0.10040559"
       inkscape:transform-center-y="-2.8223755"
       d="m 48.59824,59.233632 c 0,0 -10.527619,-9.582831 -17.062538,-9.657456 -6.529143,-0.07456 -17.26335,9.257111 -17.26335,9.257111 0,0 5.45966,-13.520542 3.490494,-19.992617 C 15.835698,32.506698 4.0283393,24.492805 4.0283393,24.492805 c 0,0 13.9911747,1.111234 19.2197837,-2.698661 5.424926,-3.952944 8.416105,-18.1123978 8.774956,-18.1245797 0.358851,-0.012182 3.048839,14.2477657 8.387987,18.3247527 5.143387,3.927503 19.157727,3.146259 19.157727,3.146259 0,0 -11.973298,7.74004 -14.035722,14.023981 -2.110301,6.429815 3.065169,20.069075 3.065169,20.069075 z"
       id="path3069"
       inkscape:connector-curvature="0"
       sodipodi:nodetypes="cscscszscsc" />
    <path
       sodipodi:type="spiral"
       style="fill:#ff0000;stroke:#000000;stroke-width:1px;stroke-linecap:butt;stroke-linejoin:miter;stroke-opacity:1"
       id="path3772"
       sodipodi:cx="28.896883"
       sodipodi:cy="31.266188"
       sodipodi:expansion="1"
       sodipodi:revolution="3"
       sodipodi:radius="14.540069"
       sodipodi:argument="-17.988281"
       sodipodi:t0="0"
       d="m 28.896883,31.266188 c 0.474933,0.553085 -0.511233,0.913072 -0.919264,0.789369 -1.105739,-0.335228 -1.177025,-1.789604 -0.659475,-2.627897 0.925777,-1.499509 3.035582,-1.523029 4.336531,-0.52958 1.909193,1.457925 1.880769,4.298998 0.399685,6.045163 -1.974051,2.327364 -5.568674,2.243599 -7.753796,0.269791 -2.749753,-2.483835 -2.609081,-6.841352 -0.139897,-9.462429 2.990512,-3.174477 8.115723,-2.9761 11.171063,-0.01 3.600612,3.495443 3.344085,9.391151 -0.119892,12.879696 -3.999299,4.027664 -10.667284,3.712716 -14.58833,-0.249786 -4.455341,-4.502447 -4.081797,-11.943912 0.379682,-16.296963 5.005104,-4.883465 13.2209,-4.451205 18.005595,0.509576 5.311919,5.507407 4.820859,14.498161 -0.63947,19.714229"
       transform="translate(1.1606713,4)" />
  </g>
</svg>
